{
	"asset":{
		"generator":"Khronos glTF Blender I/O v4.2.70",
		"version":"2.0"
	},
	"extensionsUsed":[
		"KHR_materials_specular",
		"KHR_materials_ior"
	],
	"scene":0,
	"scenes":[
		{
			"name":"Scene",
			"nodes":[
				17,
				18,
				19,
				20,
				21,
				22,
				23,
				24
			]
		}
	],
	"nodes":[
		{
			"name":"Head",
			"rotation":[
				0,
				1.1920928955078125e-07,
				0,
				1
			],
			"translation":[
				0,
				1.8392219543457031,
				0
			]
		},
		{
			"name":"Bone.001_L.002",
			"rotation":[
				-0.01496475376188755,
				2.8088455172881055e-11,
				7.70594343890707e-09,
				0.9998880624771118
			],
			"scale":[
				1,
				1,
				0.9999999403953552
			],
			"translation":[
				0.4969079792499542,
				-0.708176851272583,
				0.03316304087638855
			]
		},
		{
			"children":[
				1
			],
			"name":"LeftLowerLeg",
			"rotation":[
				0.023417918011546135,
				3.282997043164461e-14,
				-9.120530108930325e-09,
				0.9997257590293884
			],
			"scale":[
				1,
				0.9999999403953552,
				1
			],
			"translation":[
				-1.3157465339475038e-08,
				0.7070543169975281,
				-1.5059242741699563e-09
			]
		},
		{
			"children":[
				2
			],
			"name":"LeftUpperLeg",
			"rotation":[
				-1.9470023460144148e-07,
				0.008456393145024776,
				-0.9999642372131348,
				1.646406677657808e-09
			],
			"scale":[
				1,
				1,
				1.0001378059387207
			],
			"translation":[
				-0.49899670481681824,
				-0.17944657802581787,
				2.712259856707533e-07
			]
		},
		{
			"name":"Bone.001_R.002",
			"rotation":[
				-0.01496475376188755,
				-2.8088455172881055e-11,
				-7.70594343890707e-09,
				0.9998880624771118
			],
			"scale":[
				1,
				1,
				0.9999999403953552
			],
			"translation":[
				-0.4969079792499542,
				-0.708176851272583,
				0.03316304087638855
			]
		},
		{
			"children":[
				4
			],
			"name":"RightLowerLeg",
			"rotation":[
				0.023417918011546135,
				-3.282997043164461e-14,
				9.120530108930325e-09,
				0.9997257590293884
			],
			"scale":[
				1,
				0.9999999403953552,
				1
			],
			"translation":[
				1.3157465339475038e-08,
				0.7070543169975281,
				-1.5059242741699563e-09
			]
		},
		{
			"children":[
				5
			],
			"name":"RightUpperLeg",
			"rotation":[
				-1.9470023460144148e-07,
				-0.008456393145024776,
				0.9999642372131348,
				1.646406677657808e-09
			],
			"scale":[
				1,
				1,
				1.0001378059387207
			],
			"translation":[
				0.49899670481681824,
				-0.17944657802581787,
				2.712259856707533e-07
			]
		},
		{
			"name":"RightArm.002",
			"rotation":[
				0.37952348589897156,
				1.4490386490706442e-07,
				-4.118568153188562e-09,
				0.9251821041107178
			],
			"translation":[
				-6.245103634228144e-08,
				-0.03309321403503418,
				-0.005722343921661377
			]
		},
		{
			"children":[
				7
			],
			"name":"RightUpperArm",
			"rotation":[
				0.7071068286895752,
				0,
				0.7071067094802856,
				0
			],
			"scale":[
				1,
				0.9999999403953552,
				1
			],
			"translation":[
				1.005561351776123,
				1.2922561168670654,
				5.1807209189291825e-08
			]
		},
		{
			"name":"LeftArm.002",
			"rotation":[
				0.37952348589897156,
				-1.4490386490706442e-07,
				4.118568153188562e-09,
				0.9251821041107178
			],
			"translation":[
				6.245103634228144e-08,
				-0.03309321403503418,
				-0.005722343921661377
			]
		},
		{
			"children":[
				9
			],
			"name":"LeftUpperArm",
			"rotation":[
				0.7071068286895752,
				0,
				-0.7071067094802856,
				0
			],
			"scale":[
				1,
				0.9999999403953552,
				1
			],
			"translation":[
				-1.005561351776123,
				1.2922561168670654,
				5.1807209189291825e-08
			]
		},
		{
			"children":[
				0,
				3,
				6,
				8,
				10
			],
			"name":"Torso",
			"rotation":[
				0,
				-1.1920928955078125e-07,
				0,
				1
			],
			"translation":[
				0,
				-0.3848409652709961,
				0
			]
		},
		{
			"name":"Bone.001_L.003",
			"rotation":[
				2.0861624250301247e-07,
				1,
				-4.0619082126687814e-14,
				1.9470718370939721e-07
			],
			"translation":[
				6.334790896289633e-07,
				1.5182881355285645,
				-0.029121756553649902
			]
		},
		{
			"children":[
				12
			],
			"name":"LeftLeg-IKTarget",
			"rotation":[
				-0.7071067690849304,
				6.322026990801533e-08,
				6.322026990801533e-08,
				0.7071067690849304
			],
			"translation":[
				-0.49899670481681824,
				-2.469547748565674,
				1.5225589322653832e-07
			]
		},
		{
			"name":"Bone.001_R.003",
			"rotation":[
				2.0861624250301247e-07,
				-1,
				4.06190855148196e-14,
				1.9470718370939721e-07
			],
			"translation":[
				-6.334790896289633e-07,
				1.5182881355285645,
				-0.029121756553649902
			]
		},
		{
			"children":[
				14
			],
			"name":"RightLeg-IKTarget",
			"rotation":[
				-0.7071067690849304,
				-2.318076610663411e-07,
				-2.318076610663411e-07,
				0.7071067690849304
			],
			"translation":[
				0.49899670481681824,
				-2.469547748565674,
				3.9019607811496826e-07
			]
		},
		{
			"children":[
				11,
				13,
				15
			],
			"name":"MasterControl",
			"rotation":[
				0,
				1.1920928955078125e-07,
				0,
				1
			],
			"translation":[
				0,
				2.5622811317443848,
				0
			]
		},
		{
			"children":[
				16
			],
			"name":"Armature"
		},
		{
			"mesh":0,
			"name":"Head",
			"rotation":[
				0.708091676235199,
				0.025754202157258987,
				-0.026371939107775688,
				0.7051577568054199
			],
			"translation":[
				-0.0030389130115509033,
				-0.1297764778137207,
				-0.9698740839958191
			]
		},
		{
			"mesh":1,
			"name":"Left Arm",
			"rotation":[
				-0.9856050610542297,
				0,
				0,
				0.16906432807445526
			],
			"translation":[
				0.00016111135482788086,
				4.522167205810547,
				-4.008005619049072
			]
		},
		{
			"mesh":2,
			"name":"Left Leg",
			"rotation":[
				0.3175739645957947,
				0,
				0,
				0.9482336044311523
			],
			"scale":[
				1,
				1.0004136562347412,
				1
			],
			"translation":[
				0.004095673561096191,
				0.8311848640441895,
				1.4480469226837158
			]
		},
		{
			"mesh":3,
			"name":"Right Arm",
			"rotation":[
				0.15168586373329163,
				0,
				0,
				0.9884287714958191
			],
			"translation":[
				-0.0001608133316040039,
				2.327190399169922,
				2.568084239959717
			]
		},
		{
			"mesh":4,
			"name":"Right Leg",
			"rotation":[
				0.8984712958335876,
				0,
				0,
				0.43903249502182007
			],
			"scale":[
				1,
				1.0004149675369263,
				0.9999951124191284
			],
			"translation":[
				-0.004095256328582764,
				0.41886842250823975,
				-1.3695098161697388
			]
		},
		{
			"mesh":5,
			"name":"Torso",
			"rotation":[
				0.5517832040786743,
				0,
				0,
				0.8339875936508179
			],
			"translation":[
				0,
				0.17340993881225586,
				0.617610514163971
			]
		},
		{
			"name":"Plane.002",
			"rotation":[
				0.7071068286895752,
				0,
				0,
				0.7071068286895752
			],
			"scale":[
				0.35336995124816895,
				0.35336995124816895,
				0.35336995124816895
			],
			"translation":[
				9.049475193023682e-05,
				4.50776481628418,
				-0.6057271361351013
			]
		}
	],
	"materials":[
		{
			"alphaMode":"BLEND",
			"doubleSided":true,
			"extensions":{
				"KHR_materials_specular":{
					"specularFactor":0.125490203499794
				},
				"KHR_materials_ior":{
					"ior":1.4500000476837158
				}
			},
			"name":"R64Mtl",
			"pbrMetallicRoughness":{
				"baseColorTexture":{
					"index":0
				},
				"metallicFactor":0
			}
		},
		{
			"alphaMode":"BLEND",
			"doubleSided":true,
			"extensions":{
				"KHR_materials_specular":{
					"specularFactor":0.125490203499794
				}
			},
			"name":"Handle1Mtl",
			"pbrMetallicRoughness":{
				"baseColorTexture":{
					"index":1
				},
				"metallicFactor":0
			}
		}
	],
	"meshes":[
		{
			"name":"R69",
			"primitives":[
				{
					"attributes":{
						"POSITION":0,
						"NORMAL":1,
						"TEXCOORD_0":2
					},
					"indices":3,
					"material":0
				},
				{
					"attributes":{
						"POSITION":4,
						"NORMAL":5,
						"TEXCOORD_0":6
					},
					"indices":7,
					"material":1
				}
			]
		},
		{
			"name":"R67",
			"primitives":[
				{
					"attributes":{
						"POSITION":8,
						"NORMAL":9,
						"TEXCOORD_0":10
					},
					"indices":11,
					"material":0
				}
			]
		},
		{
			"name":"R65",
			"primitives":[
				{
					"attributes":{
						"POSITION":12,
						"NORMAL":13,
						"TEXCOORD_0":14
					},
					"indices":11,
					"material":0
				}
			]
		},
		{
			"name":"R66",
			"primitives":[
				{
					"attributes":{
						"POSITION":15,
						"NORMAL":16,
						"TEXCOORD_0":17
					},
					"indices":18,
					"material":0
				}
			]
		},
		{
			"name":"R64",
			"primitives":[
				{
					"attributes":{
						"POSITION":19,
						"NORMAL":20,
						"TEXCOORD_0":21
					},
					"indices":18,
					"material":0
				}
			]
		},
		{
			"name":"R68",
			"primitives":[
				{
					"attributes":{
						"POSITION":22,
						"NORMAL":23,
						"TEXCOORD_0":24
					},
					"indices":11,
					"material":0
				},
				{
					"attributes":{
						"POSITION":25,
						"NORMAL":26,
						"TEXCOORD_0":27
					},
					"indices":28,
					"material":1
				}
			]
		}
	],
	"textures":[
		{
			"sampler":0,
			"source":0
		},
		{
			"sampler":0,
			"source":1
		}
	],
	"images":[
		{
			"bufferView":4,
			"mimeType":"image/png",
			"name":"Cashimitrash1_diff"
		},
		{
			"bufferView":9,
			"mimeType":"image/png",
			"name":"Handle1_diff"
		}
	],
	"skins":[
		{
			"inverseBindMatrices":29,
			"joints":[
				16,
				11,
				0,
				3,
				2,
				1,
				6,
				5,
				4,
				8,
				7,
				10,
				9,
				13,
				12,
				15,
				14
			],
			"name":"Armature"
		}
	],
	"accessors":[
		{
			"bufferView":0,
			"componentType":5126,
			"count":517,
			"max":[
				0.598924994468689,
				0.598924994468689,
				-3.898789882659912
			],
			"min":[
				-0.598924994468689,
				-0.598924994468689,
				-5.101210117340088
			],
			"type":"VEC3"
		},
		{
			"bufferView":1,
			"componentType":5126,
			"count":517,
			"type":"VEC3"
		},
		{
			"bufferView":2,
			"componentType":5126,
			"count":517,
			"type":"VEC2"
		},
		{
			"bufferView":3,
			"componentType":5123,
			"count":2538,
			"type":"SCALAR"
		},
		{
			"bufferView":5,
			"componentType":5126,
			"count":8464,
			"max":[
				1.077974557876587,
				0.9158660173416138,
				-3.0557949542999268
			],
			"min":[
				-0.9861568212509155,
				-0.9673213362693787,
				-5.834718704223633
			],
			"type":"VEC3"
		},
		{
			"bufferView":6,
			"componentType":5126,
			"count":8464,
			"type":"VEC3"
		},
		{
			"bufferView":7,
			"componentType":5126,
			"count":8464,
			"type":"VEC2"
		},
		{
			"bufferView":8,
			"componentType":5123,
			"count":15510,
			"type":"SCALAR"
		},
		{
			"bufferView":10,
			"componentType":5126,
			"count":42,
			"max":[
				-1,
				0.5,
				-2
			],
			"min":[
				-2,
				-0.5,
				-4
			],
			"type":"VEC3"
		},
		{
			"bufferView":11,
			"componentType":5126,
			"count":42,
			"type":"VEC3"
		},
		{
			"bufferView":12,
			"componentType":5126,
			"count":42,
			"type":"VEC2"
		},
		{
			"bufferView":13,
			"componentType":5123,
			"count":132,
			"type":"SCALAR"
		},
		{
			"bufferView":14,
			"componentType":5126,
			"count":42,
			"max":[
				0,
				0.5,
				0
			],
			"min":[
				-1,
				-0.5,
				-2
			],
			"type":"VEC3"
		},
		{
			"bufferView":15,
			"componentType":5126,
			"count":42,
			"type":"VEC3"
		},
		{
			"bufferView":16,
			"componentType":5126,
			"count":42,
			"type":"VEC2"
		},
		{
			"bufferView":17,
			"componentType":5126,
			"count":42,
			"max":[
				2,
				0.5,
				-2
			],
			"min":[
				1,
				-0.5,
				-4
			],
			"type":"VEC3"
		},
		{
			"bufferView":18,
			"componentType":5126,
			"count":42,
			"type":"VEC3"
		},
		{
			"bufferView":19,
			"componentType":5126,
			"count":42,
			"type":"VEC2"
		},
		{
			"bufferView":20,
			"componentType":5123,
			"count":132,
			"type":"SCALAR"
		},
		{
			"bufferView":21,
			"componentType":5126,
			"count":42,
			"max":[
				1,
				0.5,
				0
			],
			"min":[
				0,
				-0.5,
				-2
			],
			"type":"VEC3"
		},
		{
			"bufferView":22,
			"componentType":5126,
			"count":42,
			"type":"VEC3"
		},
		{
			"bufferView":23,
			"componentType":5126,
			"count":42,
			"type":"VEC2"
		},
		{
			"bufferView":24,
			"componentType":5126,
			"count":42,
			"max":[
				1,
				0.5,
				-2
			],
			"min":[
				-1,
				-0.5,
				-4
			],
			"type":"VEC3"
		},
		{
			"bufferView":25,
			"componentType":5126,
			"count":42,
			"type":"VEC3"
		},
		{
			"bufferView":26,
			"componentType":5126,
			"count":42,
			"type":"VEC2"
		},
		{
			"bufferView":27,
			"componentType":5126,
			"count":4328,
			"max":[
				1.5496399402618408,
				0.8295493721961975,
				-1.0868566036224365
			],
			"min":[
				-1.237799882888794,
				0.5704481601715088,
				-5.244856834411621
			],
			"type":"VEC3"
		},
		{
			"bufferView":28,
			"componentType":5126,
			"count":4328,
			"type":"VEC3"
		},
		{
			"bufferView":29,
			"componentType":5126,
			"count":4328,
			"type":"VEC2"
		},
		{
			"bufferView":30,
			"componentType":5123,
			"count":6498,
			"type":"SCALAR"
		},
		{
			"bufferView":31,
			"componentType":5126,
			"count":17,
			"type":"MAT4"
		}
	],
	"bufferViews":[
		{
			"buffer":0,
			"byteLength":6204,
			"byteOffset":0,
			"target":34962
		},
		{
			"buffer":0,
			"byteLength":6204,
			"byteOffset":6204,
			"target":34962
		},
		{
			"buffer":0,
			"byteLength":4136,
			"byteOffset":12408,
			"target":34962
		},
		{
			"buffer":0,
			"byteLength":5076,
			"byteOffset":16544,
			"target":34963
		},
		{
			"buffer":0,
			"byteLength":413814,
			"byteOffset":21620
		},
		{
			"buffer":0,
			"byteLength":101568,
			"byteOffset":435436,
			"target":34962
		},
		{
			"buffer":0,
			"byteLength":101568,
			"byteOffset":537004,
			"target":34962
		},
		{
			"buffer":0,
			"byteLength":67712,
			"byteOffset":638572,
			"target":34962
		},
		{
			"buffer":0,
			"byteLength":31020,
			"byteOffset":706284,
			"target":34963
		},
		{
			"buffer":0,
			"byteLength":476897,
			"byteOffset":737304
		},
		{
			"buffer":0,
			"byteLength":504,
			"byteOffset":1214204,
			"target":34962
		},
		{
			"buffer":0,
			"byteLength":504,
			"byteOffset":1214708,
			"target":34962
		},
		{
			"buffer":0,
			"byteLength":336,
			"byteOffset":1215212,
			"target":34962
		},
		{
			"buffer":0,
			"byteLength":264,
			"byteOffset":1215548,
			"target":34963
		},
		{
			"buffer":0,
			"byteLength":504,
			"byteOffset":1215812,
			"target":34962
		},
		{
			"buffer":0,
			"byteLength":504,
			"byteOffset":1216316,
			"target":34962
		},
		{
			"buffer":0,
			"byteLength":336,
			"byteOffset":1216820,
			"target":34962
		},
		{
			"buffer":0,
			"byteLength":504,
			"byteOffset":1217156,
			"target":34962
		},
		{
			"buffer":0,
			"byteLength":504,
			"byteOffset":1217660,
			"target":34962
		},
		{
			"buffer":0,
			"byteLength":336,
			"byteOffset":1218164,
			"target":34962
		},
		{
			"buffer":0,
			"byteLength":264,
			"byteOffset":1218500,
			"target":34963
		},
		{
			"buffer":0,
			"byteLength":504,
			"byteOffset":1218764,
			"target":34962
		},
		{
			"buffer":0,
			"byteLength":504,
			"byteOffset":1219268,
			"target":34962
		},
		{
			"buffer":0,
			"byteLength":336,
			"byteOffset":1219772,
			"target":34962
		},
		{
			"buffer":0,
			"byteLength":504,
			"byteOffset":1220108,
			"target":34962
		},
		{
			"buffer":0,
			"byteLength":504,
			"byteOffset":1220612,
			"target":34962
		},
		{
			"buffer":0,
			"byteLength":336,
			"byteOffset":1221116,
			"target":34962
		},
		{
			"buffer":0,
			"byteLength":51936,
			"byteOffset":1221452,
			"target":34962
		},
		{
			"buffer":0,
			"byteLength":51936,
			"byteOffset":1273388,
			"target":34962
		},
		{
			"buffer":0,
			"byteLength":34624,
			"byteOffset":1325324,
			"target":34962
		},
		{
			"buffer":0,
			"byteLength":12996,
			"byteOffset":1359948,
			"target":34963
		},
		{
			"buffer":0,
			"byteLength":1088,
			"byteOffset":1372944
		}
	],
	"samplers":[
		{
			"magFilter":9729,
			"minFilter":9987
		}
	],
	"buffers":[
		{
			"byteLength":1374032,
			"uri":"data:application/octet-stream;base64,"
		}
	]
}
